PathFileType	4	(X/Y/Z)	RBDS018\RBDS018runT45.trc
DataRate	CameraRate	NumFrames	NumMarkers	Units	OrigDataRate	OrigDataStartFrame	OrigNumFrames
150.000000	150.000000	6	33	mm	150.000000	0	4500
Frame#	Time	L.ASIS			L.Heel.Bottom			L.Heel.Lateral			L.Heel.Top			L.Iliac.Crest			L.MT1			L.MT5			L.PSIS			L.Shank.Bottom.Lateral			L.Shank.Bottom.Medial			L.Shank.Top.Lateral			L.Shank.Top.Medial			L.Thigh.Bottom.Lateral			L.Thigh.Bottom.Medial			L.Thigh.Top.Lateral			L.Thigh.Top.Medial			R.ASIS			R.ASY			R.Heel.Bottom			R.Heel.Lateral			R.Heel.Top			R.Iliac.Crest			R.MT1			R.MT5			R.PSIS			R.Shank.Bottom.Lateral			R.Shank.Bottom.Medial			R.Shank.Top.Lateral			R.Shank.Top.Medial			R.Thigh.Bottom.Lateral			R.Thigh.Bottom.Medial			R.Thigh.Top.Lateral			R.Thigh.Top.Medial			
		X1	Y1	Z1	X2	Y2	Z2	X3	Y3	Z3	X4	Y4	Z4	X5	Y5	Z5	X6	Y6	Z6	X7	Y7	Z7	X8	Y8	Z8	X9	Y9	Z9	X10	Y10	Z10	X11	Y11	Z11	X12	Y12	Z12	X13	Y13	Z13	X14	Y14	Z14	X15	Y15	Z15	X16	Y16	Z16	X17	Y17	Z17	X18	Y18	Z18	X19	Y19	Z19	X20	Y20	Z20	X21	Y21	Z21	X22	Y22	Z22	X23	Y23	Z23	X24	Y24	Z24	X25	Y25	Z25	X26	Y26	Z26	X27	Y27	Z27	X28	Y28	Z28	X29	Y29	Z29	X30	Y30	Z30	X31	Y31	Z31	X32	Y32	Z32	X33	Y33	Z33	

1	0	2192.940088589879	995.4051805324194	898.7406023456913	1683.110595429764	693.6770574844288	995.7743189702207	1671.324505665983	669.4650285577964	944.0706380640379	1719.687891354596	660.1498503568132	985.7182447928384	2148.417860045543	1079.289998924905	845.0372408770007	1581.156570559549	493.3679985099162	1023.225223944657	1583.610095956532	529.0727497658453	916.0084051974177	2014.138688515735	1017.917464178078	927.818033732371	1789.887569853387	595.3467931023686	915.2839943522664	1799.475623644933	621.8500689670733	957.3266534130724	1868.317921842182	585.047206287386	898.5284361232284	1883.028032893533	609.8949801970044	943.1857061671255	2103.283753563946	574.4320447506285	846.5746894104791	2048.977187684515	581.9312606416406	896.0228228373459	2102.378151739614	681.80679482175	826.03078231926	2047.644212761624	689.0946791590106	869.2407544435484	2165.606805403348	1014.930540424091	1120.366373104751	2365.219092361579	84.72385696551329	1007.987726019331	2170.385994295037	31.71569532218474	973.7111329400493	2187.842577941527	39.05978167450277	1015.270187496858	2183.595713372814	79.97763686968119	984.6828781140484	2094.509064033438	1085.29168842435	1145.366188975405	2397.991877707502	50.42807703408852	954.7060192805395	2356.472739555003	38.23992874441022	1062.343534872662	1997.139900209603	1024.588010683221	1037.90183767569	2238.372728016138	172.166736176812	1083.840337869456	2196.799240721538	185.0043049088804	1049.266330332421	2233.100939901374	246.7402910019582	1113.669534409813	2192.866300324689	259.4822839293682	1079.550399373136	2212.072358654431	603.3010220526982	1167.528519396635	2160.565509479787	584.7281505405086	1120.35646956856	2159.279393102059	699.0129355425996	1185.587927766207	2110.710821893418	680.7246907783259	1141.970795170153	
2	0.006666666666666667	2190.82948591991	985.947465922961	900.7360464625398	1704.054545535845	693.6193097951577	990.9516472042732	1693.30477479773	668.2485274735458	939.7351775427815	1740.885144767786	659.8414776533876	982.1459847075455	2145.42001120934	1068.004372176053	844.6263881725628	1600.729911663744	493.2978034501941	1018.933031361542	1605.854297480178	527.2810137663483	911.2176847462664	2011.501333406381	1012.026293672475	927.4235535451098	1812.257794270355	593.4074491479854	911.9627871197879	1822.364120981287	619.7235118707042	954.0947717563513	1890.649572429211	581.6240000730307	895.2950007998963	1905.882547815147	606.1852066430937	940.0072479904176	2118.948264175166	568.6237147798483	843.3235935744517	2063.278620390607	573.1232652661716	891.1262371452992	2113.200558314659	675.9547210584586	823.9991339464505	2056.932954653922	679.741483435394	865.017487230306	2161.534100471817	1008.707069807818	1122.189394272454	2336.561565494637	83.90139799373134	1004.328992983554	2141.670829338361	32.05055947175275	971.0935317943553	2159.396067599891	41.0196065342795	1012.203886305514	2155.282545718398	80.49926194534305	979.9739116982948	2091.226780704311	1077.156816752436	1146.739155706911	2370.04904592262	49.20312940688581	953.121888461983	2327.729888312972	38.88129711336679	1060.395198135582	1993.376814877256	1020.542377684385	1036.923798910982	2218.456516499979	172.9764609560762	1079.749673504625	2176.70142588481	187.4230415942091	1046.124901160107	2216.888159781206	247.6972675126315	1110.034622833248	2176.574062422172	261.7511402578816	1076.470567812537	2205.557080512393	599.7262484994307	1167.696092642298	2154.52772641278	581.6361999490881	1119.766996902771	2152.832327782077	695.5489964345841	1185.859604139732	2104.50508984712	677.5578603221971	1141.790823136925	
3	0.01333333333333333	2188.696016011988	976.8695267587129	902.6549651665717	1724.483658058981	693.0202522998595	986.182268231948	1714.820753052592	666.5351163774569	935.4551899872268	1761.637980435691	659.126738020659	978.6037242796876	2142.286104226666	1057.25618381856	844.248670625543	1620.465888800874	492.4470371918065	1014.653432491955	1628.100014671591	524.833550344458	906.4711011419374	2008.863710392375	1006.456492852819	927.0524735365806	1834.379167314566	591.2782798346562	908.6434535947233	1844.926032485282	617.4907439401659	950.8295938477246	1912.758917692412	578.2647512802046	892.0651192098417	1928.426272276904	602.651505485763	936.787803713222	2134.721303321052	563.4930307219096	840.1746741899631	2077.785706281979	564.9125264613925	886.3563471884265	2124.056643482425	670.6638364495825	822.0271655475411	2066.365065357865	670.9107714184192	860.8977438112836	2157.488528948517	1002.779801388321	1124.035312091948	2307.810904290338	83.0927035801986	1000.945305781347	2112.888482211399	32.4343866493744	968.6529526230396	2130.854161946097	42.91344484392263	1009.352523854976	2126.890584853206	81.04352510211366	975.5977129567008	2087.943014001974	1069.408697240319	1148.039721149514	2341.934189152999	48.04184548712679	951.665047232189	2298.859233346516	39.46907659976326	1058.606151766522	1989.704192737721	1016.716685846453	1035.963972179175	2198.15871979795	173.7004679113333	1075.976961465827	2156.298920485468	189.7489204995955	1043.228632171848	2200.247084669479	248.5223534781623	1106.670053093259	2159.924416276831	263.9002845035119	1073.614229652952	2198.797561990482	596.1848244006517	1167.860672011443	2148.207953504475	578.6279586909214	1119.21333945775	2146.28554485432	692.172013501537	1186.131101948883	2098.167918023104	674.5342812178536	1141.631301741764	
4	0.02	2186.516029425731	968.5286932924629	904.4185497083383	1743.893747294944	691.3856598587897	981.5204647514319	1735.419861870205	663.8754503888605	931.2845102697562	1781.508622348289	657.6347425477314	975.1227755181337	2138.894943732438	1047.522605071319	843.9321500128715	1640.488032317075	490.094289961658	1010.390136487255	1650.327833798021	521.1347150360021	901.8025756513745	2006.228100785131	1001.490763840586	926.7270238061924	1855.999903846161	588.7930343244485	905.3305740041287	1866.829636570377	615.0625108033574	947.5032149156507	1934.421598065647	575.0408545395454	888.8396163530898	1950.345106560292	599.4669323853714	933.4886056296257	2150.699371938011	559.6742707158536	837.2166436745479	2092.688514357454	557.8621763930923	881.8261477972109	2134.975254815138	666.4565932941821	820.1697923490253	2076.074909546532	663.0918473972026	856.9832697133387	2153.500099238799	997.4138332630041	1125.915179415454	2278.854402963987	82.324991713049	998.0704088554652	2083.922706766263	32.86960043057768	966.5493591445934	2102.081185579271	44.64238869323207	1006.907482745921	2098.285232376737	81.60243135685521	971.8489359810037	2084.645486489307	1062.415126001775	1149.205691130871	2313.480162956177	47.0142549821488	950.4388981754172	2269.735526696437	39.95882693117533	1057.10410396271	1986.196562731753	1013.298837216214	1035.040089316074	2177.105804991669	174.2482303205963	1072.792566880101	2135.278733323327	191.8933381522994	1040.799847829491	2182.773537953076	249.0756716734251	1103.811039687782	2142.568275355002	265.8075449194024	1071.188716892774	2191.561891502129	592.6743408196403	1168.017238390613	2141.32870183137	575.7417284827222	1118.728834497756	2139.53223403844	688.9388012284237	1186.393993860202	2091.555228834043	671.7590582435855	1141.50552102326	
5	0.02666666666666667	2184.279894683666	961.246217014546	905.9550343192026	1761.868513337103	688.3055098853782	977.0197200789103	1754.730241935679	659.9025835944661	927.2718462865921	1800.129687747509	655.0552800888154	971.7369260979768	2135.177028762485	1039.200551670639	843.6984408808678	1660.883290562827	485.6711572702483	1006.148572931278	1672.513770814041	515.7196485989148	897.2415506525956	2003.610391522848	997.3513736787139	926.4676387551958	1876.883249155027	585.818042625052	902.0395731560196	1887.770219500304	612.3605182663432	944.1068217397482	1955.417550053619	572.0087696872055	885.6282859050243	1971.343247074359	596.761174768316	930.0906684862038	2166.921361560531	557.6819267358334	834.5250027186798	2108.103624693997	552.4431524770793	877.6322521422154	2145.955851621565	663.7574856081014	818.4754318427488	2086.150847161768	656.6944162068544	853.3691246327812	2149.619695026909	992.8200040707713	1127.812879690984	2249.617800625339	81.62739461009703	995.8747912839559	2054.692967106635	33.35833998029431	964.8988129783776	2072.982957944093	46.13369951975621	1005.007600298485	2069.371008652572	82.17286478800519	968.9419984893049	2081.348277941005	1056.4881525322	1150.185188616527	2284.57854587721	46.17805102096253	949.5181160194604	2240.279294279593	40.32236974641587	1055.979043854522	1982.922146516025	1010.431830778076	1034.17276117286	2155.030687400032	174.5557134396813	1070.384688621268	2113.409154531964	193.7919720636087	1039.004585864675	2164.17669709476	249.2533766529945	1101.625096155631	2124.245768765822	267.3788504898982	1069.352337219156	2183.658805717797	589.1979515872158	1168.168626400009	2133.656069834558	573.0089975439508	1118.353230565061	2132.483873008795	685.9018515929237	1186.638903775993	2084.544913691226	669.3204139709892	1141.426549925135	
6	0.03333333333333333	2181.99716658492	955.2921280712368	907.2047672349175	1778.121684631831	683.4662953614195	972.7333331878916	1772.499793683005	654.3446141798232	923.4595230316603	1817.240263530211	651.1458863103884	968.4829987708812	2131.130319236684	1032.578642519015	843.5622980593973	1681.712697433955	478.8006378176908	1001.934785886139	1694.644947038056	508.2847778428275	892.810565610849	2001.04423511045	994.1874567606296	926.2958879510007	1896.827099490211	582.2555844589135	898.7996638916635	1907.492869140267	609.3122272088635	940.657165397747	1975.544636962927	569.2010524380458	882.4533962087046	1991.161001974504	594.600866025589	926.6028477554107	2183.354416445668	557.8753191645502	832.1584502905813	2124.054663837063	549.0068349930937	873.8518791372531	2156.961802774854	662.8644831596534	816.9843805899276	2096.622514114582	652.0249547788055	850.1413558823971	2145.925181317923	989.1384036130052	1129.682346390554	2220.064621353505	81.0298793495953	994.4478749653898	2025.151873193145	33.91168774707127	963.7626779159244	2043.506312271624	47.35577578878234	1003.725975500239	2040.092405991915	82.76593929468117	966.990715667928	2078.102316373081	1051.862715342472	1150.942172019554	2255.180438587451	45.57213802386526	948.9399282512799	2210.455410769194	40.55086266611088	1055.272328046453	1979.943523730081	1008.207362345328	1033.390349972665	2131.78689817178	174.6026445377716	1068.838677348171	2090.550278281146	195.420933150814	1037.933826069145	2144.293491464177	249.0089413589821	1100.192734392557	2104.797088783054	268.5671022802736	1068.195887718384	2174.944521247438	585.7722350002352	1168.322072753106	2125.00912570934	570.4625465172818	1118.128357546414	2125.073612661884	683.1121854804046	1186.853886314616	2077.042300928222	667.292017436737	1141.405872385003	
